# xmcd
#
# Track frame offsets:
#	182
#	17140
#	32395
#	45555
#	60605
#	72500
#	84130
#	103800
#	121262
#	136880
#	150715
#
# Disc length: 2206 seconds
#
# Revision: 4
# Processed by: cddbd v1.5.2PL0 Copyright (c) Steve Scherf et al.
# Submitted via: EZCDAudioConverter 6.0.3.1
#
DISCID=86089c0b
DTITLE=Various Artist - Today's Greatest Country
DYEAR=1994
DGENRE=Country
TTITLE0=Vince Gill - Don't Let Our Love Start Slippin' Away
TTITLE1=Patty Loveless - Jealous Bone
TTITLE2=Sawer Brown - The Dirt Road
TTITLE3=Billy Dean - Somewhere In My Broken Heart
TTITLE4=John Michael Montgomery - Line On Love
TTITLE5=Chris LeDoux - Watcha Gonna Do With A Cowboy
TTITLE6=Brooks and Dunn - Neon Moon
TTITLE7=Tanya Tucker - Some Kind Of Trouble
TTITLE8=Billy Ray Cyrus - She's Not Cryin' Anymore
TTITLE9=Hal Ketchum - Five O'Clock World
TTITLE10=McBride and The Ride - Sacred Ground
EXTD=
EXTT0=
EXTT1=
EXTT2=
EXTT3=
EXTT4=
EXTT5=
EXTT6=
EXTT7=
EXTT8=
EXTT9=
EXTT10=
PLAYORDER=
